<?xml version="1.0" standalone="no"?>
<!DOCTYPE svg PUBLIC "-//W3C//DTD SVG 20010904//EN"
 "http://www.w3.org/TR/2001/REC-SVG-20010904/DTD/svg10.dtd">
<svg version="1.0" xmlns="http://www.w3.org/2000/svg"
 width="435.000000pt" height="409.000000pt" viewBox="0 0 435.000000 409.000000"
 preserveAspectRatio="xMidYMid meet">

<g transform="translate(0.000000,409.000000) scale(0.100000,-0.100000)"
fill="#000000" stroke="none">
<path d="M2125 3394 c-11 -8 -28 -13 -37 -10 -10 2 -18 0 -18 -6 0 -5 -4 -7
-8 -4 -9 5 -82 -40 -82 -50 0 -3 5 -2 10 1 6 3 10 2 10 -4 0 -5 -4 -12 -9 -16
-6 -3 -6 -17 -1 -34 6 -20 4 -35 -6 -49 -7 -11 -11 -22 -7 -25 3 -4 -3 -19
-13 -34 -16 -25 -19 -38 -15 -74 1 -5 12 3 25 18 13 15 28 24 33 20 4 -5 1
-14 -8 -20 -28 -21 -51 -65 -44 -86 3 -10 1 -22 -4 -26 -7 -4 -9 1 -5 12 5 16
3 15 -11 -2 -23 -28 -65 -111 -65 -130 0 -8 -6 -15 -14 -15 -8 0 -18 -10 -22
-22 -15 -50 -47 -109 -64 -118 -16 -9 -17 -6 -9 27 12 55 3 52 -14 -4 -14 -44
-15 -45 -16 -16 -1 17 3 43 9 58 6 17 6 24 0 20 -5 -3 -19 -37 -31 -76 -11
-38 -25 -69 -30 -69 -5 0 -7 33 -3 78 6 77 14 110 14 58 0 -34 16 -25 25 13 3
16 13 35 21 42 8 6 14 27 14 46 0 24 4 32 13 27 6 -4 9 -3 4 1 -4 5 0 17 10
27 9 10 13 21 10 25 -4 3 -7 2 -7 -4 0 -6 -12 -18 -26 -28 -26 -16 -26 -16
-18 7 4 12 17 39 30 59 16 26 18 36 9 36 -8 0 -12 -4 -9 -9 3 -4 0 -8 -6 -8
-6 0 -8 -5 -4 -12 4 -7 3 -8 -4 -4 -6 4 -8 14 -5 24 5 14 2 13 -11 -3 -10 -11
-15 -15 -12 -8 4 6 1 15 -5 19 -8 4 -9 3 -5 -4 4 -7 2 -12 -4 -12 -6 0 -9 -4
-5 -9 3 -5 1 -12 -4 -15 -4 -3 -8 4 -7 17 1 16 -5 22 -19 22 -11 0 -20 -5 -20
-12 0 -6 -4 -15 -8 -20 -5 -4 -8 -3 -7 2 8 37 -21 49 -39 18 -10 -17 -10 -16
-11 2 0 16 -2 17 -9 5 -6 -8 -7 -18 -4 -24 3 -5 1 -6 -6 -2 -6 4 -9 12 -6 17
4 5 2 9 -4 9 -5 0 -12 -8 -14 -17 -4 -15 -5 -15 -6 2 -1 17 -3 18 -11 5 -8
-12 -10 -12 -10 -1 0 10 -6 9 -27 -4 -16 -10 -25 -14 -21 -10 4 4 2 13 -5 20
-9 9 -15 8 -27 -4 -8 -9 -14 -15 -13 -12 2 2 -5 10 -15 17 -19 14 -46 -1 -35
-20 4 -6 0 -5 -9 2 -13 10 -17 10 -21 0 -4 -10 -6 -10 -6 0 -1 6 -6 12 -12 12
-5 0 -7 -6 -3 -12 6 -10 5 -10 -8 -1 -8 7 -19 9 -23 5 -5 -4 -5 -1 -1 6 4 7
11 10 16 7 5 -3 11 -2 14 3 2 4 -6 8 -20 8 -15 0 -24 -6 -25 -15 0 -11 -3 -10
-9 4 -5 11 -9 14 -9 8 -1 -7 -6 -13 -12 -13 -5 0 -8 4 -5 8 3 5 -1 9 -9 9 -8
0 -11 -5 -8 -11 4 -6 -1 -5 -10 3 -15 12 -17 11 -17 -3 0 -9 -4 -16 -10 -16
-5 0 -13 0 -17 0 -5 0 -8 5 -8 10 0 6 -4 9 -10 8 -5 -2 -9 -10 -8 -18 2 -10 0
-10 -3 -2 -3 6 -10 12 -15 12 -6 0 -7 -6 -3 -12 4 -7 -2 -5 -13 4 -19 18 -21
16 -70 -90 -93 -195 -126 -340 -125 -552 0 -152 22 -284 69 -415 l28 -80 175
-3 175 -2 0 152 c0 151 0 154 31 219 18 38 44 75 61 87 34 24 161 83 219 102
80 26 134 59 134 82 0 20 3 18 24 -11 14 -19 22 -40 19 -51 -3 -11 3 -32 12
-47 12 -18 14 -28 7 -31 -7 -2 -12 -10 -12 -18 0 -8 -4 -14 -9 -14 -6 0 -6
-12 1 -30 8 -24 6 -42 -6 -80 -9 -27 -16 -56 -16 -65 0 -9 -4 -13 -10 -10 -5
3 -10 38 -10 76 0 47 -6 81 -17 102 -13 24 -18 28 -21 15 -2 -11 -9 -15 -19
-11 -11 4 -14 3 -9 -6 4 -6 10 -34 12 -62 3 -28 8 -60 12 -72 16 -48 -2 -274
-22 -294 -5 -5 -5 26 -1 68 8 87 -1 182 -17 173 -14 -9 -28 15 -28 47 0 15
-11 46 -24 70 l-25 43 6 -59 c4 -37 15 -74 30 -98 17 -27 23 -49 21 -75 l-3
-37 -18 54 c-11 35 -33 71 -63 103 -35 38 -45 55 -41 74 3 16 0 24 -10 24 -10
0 -12 6 -8 20 4 11 2 20 -4 20 -6 0 -11 -12 -11 -26 0 -20 -4 -25 -16 -20 -9
3 -14 3 -12 -1 2 -5 19 -39 37 -78 18 -38 36 -77 40 -85 5 -9 12 -30 16 -48 9
-44 -10 -41 -32 5 -21 42 -44 57 -36 21 3 -13 21 -48 38 -78 18 -30 36 -68 39
-85 6 -29 6 -29 -9 -10 -35 44 -55 65 -65 65 -16 0 -12 -11 27 -67 l36 -53 98
0 c111 0 97 -11 117 93 9 42 7 49 -9 58 -25 13 -26 42 -1 35 13 -5 22 1 30 19
13 29 27 26 35 -6 4 -14 1 -19 -7 -16 -16 6 -13 -61 4 -93 18 -33 30 -80 21
-80 -15 0 -41 37 -41 58 0 38 -16 24 -27 -23 l-10 -45 94 0 c105 0 142 -13
161 -55 9 -18 12 -121 12 -355 l0 -330 28 -1 c131 -2 277 5 327 16 33 7 55 13
49 14 -13 1 -34 126 -34 194 0 30 3 38 10 27 5 -8 15 -15 22 -15 8 0 14 -16
16 -42 2 -24 7 -43 12 -43 5 0 25 -16 43 -35 22 -22 46 -37 63 -38 27 -2 29 1
36 53 5 30 17 74 28 97 11 24 20 48 20 55 1 25 25 53 45 53 25 0 33 -13 30
-45 -2 -14 -4 -33 -4 -42 -1 -9 -13 -30 -27 -47 -17 -21 -24 -40 -22 -60 l3
-30 79 47 c209 125 381 308 488 521 149 297 172 669 61 987 l-28 79 -263 5
-264 5 -24 28 c-24 28 -24 30 -24 243 0 143 -3 213 -10 209 -6 -4 -8 -10 -6
-14 3 -4 0 -13 -6 -21 -8 -13 -9 -12 -5 2 3 9 -2 22 -11 29 -14 11 -15 11 -5
0 7 -9 9 -21 3 -36 -5 -13 -6 -26 -2 -30 4 -4 0 -5 -8 -3 -8 2 -14 -3 -12 -10
1 -6 -1 -12 -5 -11 -21 3 -54 -15 -49 -27 3 -8 0 -11 -10 -7 -9 3 -13 13 -9
27 5 19 5 19 -5 3 -9 -14 -9 -22 1 -33 10 -12 9 -13 -7 -8 -10 4 -16 3 -11 -1
8 -9 -20 -45 -35 -45 -5 0 -8 6 -7 13 1 6 1 19 0 27 -1 12 -3 12 -10 2 -6 -10
-14 -4 -31 23 -26 42 -106 105 -170 134 -57 26 -194 29 -225 5z m-728 -376
c-3 -8 -6 -5 -6 6 -1 11 2 17 5 13 3 -3 4 -12 1 -19z m230 7 c0 -8 -4 -12 -9
-9 -5 3 -6 10 -3 15 9 13 12 11 12 -6z m56 -2 c-3 -7 -6 -13 -8 -13 -2 0 -5 6
-8 13 -3 8 1 14 8 14 7 0 11 -6 8 -14z m490 -47 c7 4 9 4 5 -1 -4 -4 -1 -13 8
-19 14 -11 14 -17 -2 -61 -13 -40 -15 -69 -10 -145 3 -52 9 -110 12 -127 4
-21 2 -33 -5 -33 -6 0 -11 12 -12 28 0 24 -1 24 -8 7 -5 -11 -6 -24 -3 -30 13
-21 10 -35 -7 -35 -27 0 -30 -9 -17 -41 15 -36 68 -64 138 -73 54 -7 108 -26
108 -37 0 -4 -6 -12 -14 -19 -20 -16 -9 -40 18 -41 l21 0 -21 -15 c-19 -13
-20 -18 -10 -47 16 -46 25 -57 41 -50 19 7 19 -1 0 -36 -8 -16 -11 -31 -8 -35
4 -4 -3 -9 -15 -13 -16 -4 -22 -13 -22 -34 0 -31 23 -49 64 -49 25 0 34 -6 61
-45 11 -16 16 -18 26 -7 10 10 10 12 0 12 -7 0 -10 4 -6 9 3 6 17 6 35 0 28
-10 29 -12 25 -70 -2 -37 -12 -74 -24 -95 -11 -19 -16 -34 -11 -34 6 0 10 -9
10 -20 0 -10 6 -23 14 -27 19 -11 28 -74 13 -92 -9 -11 -9 -13 0 -8 6 4 15 2
19 -4 4 -8 3 -9 -4 -5 -8 4 -12 0 -13 -11 0 -14 -2 -14 -9 5 -5 12 -13 22 -18
22 -12 0 5 -92 19 -100 5 -4 11 -16 12 -28 0 -11 5 -18 10 -15 4 3 6 12 3 22
-4 11 -1 10 9 -4 8 -11 19 -25 24 -32 7 -8 5 -13 -5 -17 -13 -5 -13 -8 1 -29
8 -13 16 -35 17 -50 1 -15 7 -27 12 -27 5 0 3 -6 -6 -12 -9 -7 -19 -35 -23
-61 -5 -37 -10 -47 -23 -45 -21 4 -67 71 -52 76 6 2 3 16 -10 36 -22 36 -54
161 -69 271 -6 39 -19 93 -30 120 -10 28 -27 78 -37 113 -9 34 -23 67 -30 73
-9 8 -33 8 -83 0 -95 -15 -223 -14 -243 2 -11 9 -18 49 -27 162 -6 83 -11 174
-11 203 0 48 2 53 28 64 15 7 29 13 31 14 2 2 -7 17 -19 33 -11 17 -18 35 -15
41 3 6 -8 22 -25 36 -24 21 -30 32 -26 53 4 18 -3 39 -20 66 -24 38 -25 39
-19 10 5 -25 5 -27 -5 -12 -9 14 -9 34 0 83 14 71 25 78 64 39 34 -34 60 -31
90 8 28 36 33 57 15 57 -7 0 -9 12 -5 35 6 31 4 36 -24 50 -35 18 -35 34 0 52
19 9 29 9 52 -3 16 -8 34 -12 41 -8z m-444 -98 c-5 -10 -14 -18 -19 -18 -13 0
-12 4 2 35 8 18 14 22 19 13 4 -6 3 -20 -2 -30z m278 24 c7 -5 9 -13 3 -21 -4
-8 -6 -20 -3 -28 3 -7 -2 -13 -12 -13 -9 0 -14 4 -11 9 3 4 -3 16 -14 26 -16
14 -17 20 -8 27 16 10 30 10 45 0z m-167 -295 c0 -11 -4 -15 -11 -11 -6 3 -15
0 -20 -7 -14 -24 -23 19 -9 49 11 26 12 26 26 7 8 -10 14 -27 14 -38z m360
-87 c0 -5 -4 -10 -10 -10 -5 0 -10 5 -10 10 0 6 5 10 10 10 6 0 10 -4 10 -10z
m320 -160 c0 -5 -9 -10 -21 -10 -11 0 -17 5 -14 10 3 6 13 10 21 10 8 0 14 -4
14 -10z m5 -134 c36 -15 49 -38 18 -30 -20 6 -72 43 -60 44 4 0 23 -7 42 -14z
m-575 -21 c0 -24 -24 -44 -37 -32 -6 6 23 57 32 57 3 0 5 -11 5 -25z m550
-130 c20 -24 5 -28 -21 -6 -19 16 -20 20 -8 21 9 0 22 -7 29 -15z m121 -18
c-8 -8 -11 -7 -11 4 0 20 13 34 18 19 3 -7 -1 -17 -7 -23z m-972 -63 c17 -48
6 -56 -13 -9 -18 43 -19 45 -8 45 4 0 14 -16 21 -36z m497 -419 c1 -15 -3 -24
-9 -22 -15 5 -19 47 -4 47 6 0 13 -11 13 -25z m237 -217 c30 46 31 -29 1 -81
l-24 -42 2 110 c1 84 3 97 7 55 4 -33 9 -50 14 -42z m53 -103 c8 -32 -1 -55
-21 -55 -9 0 -15 9 -15 24 0 54 25 75 36 31z"/>
<path d="M2175 2940 c3 -5 8 -10 11 -10 2 0 4 5 4 10 0 6 -5 10 -11 10 -5 0
-7 -4 -4 -10z"/>
<path d="M2230 2178 c0 -8 6 -23 14 -33 13 -18 14 -18 9 8 -6 29 -23 48 -23
25z"/>
<path d="M2695 3333 c-5 -22 -8 -24 -17 -12 -8 11 -9 10 -4 -5 5 -13 2 -17 -8
-13 -11 4 -13 1 -9 -10 5 -13 10 -12 30 11 13 15 23 34 23 42 0 23 -7 16 -15
-13z"/>
<path d="M2994 3333 l-28 -26 22 -10 c17 -8 26 -6 41 7 22 20 51 11 51 -16 0
-11 -25 -45 -55 -77 -77 -81 -75 -91 25 -91 73 0 80 2 80 20 0 17 -7 20 -47
20 l-47 0 31 33 c68 72 79 111 41 147 -31 29 -79 26 -114 -7z"/>
<path d="M3192 3340 c-33 -31 -38 -67 -15 -98 11 -15 30 -29 42 -32 22 -5 21
-6 -9 -47 l-32 -43 27 0 c17 0 35 10 49 26 81 102 94 147 51 189 -30 31 -82
33 -113 5z m81 -41 c15 -24 1 -49 -27 -49 -29 0 -44 33 -25 56 15 18 38 15 52
-7z"/>
<path d="M3360 3240 c0 -113 1 -120 20 -120 14 0 20 7 20 24 0 13 6 29 14 35
11 9 18 5 36 -24 15 -25 29 -35 47 -35 l24 0 -30 53 -31 54 25 23 c14 13 25
27 25 32 0 18 -48 6 -70 -17 -13 -14 -27 -25 -32 -25 -4 0 -8 27 -8 60 0 53
-2 60 -20 60 -19 0 -20 -7 -20 -120z"/>
<path d="M2585 3250 c-3 -5 -8 -20 -10 -32 -4 -16 -2 -19 7 -10 6 6 12 21 13
32 2 22 -1 25 -10 10z"/>
<path d="M1110 3039 c0 -5 5 -7 10 -4 6 3 10 8 10 11 0 2 -4 4 -10 4 -5 0 -10
-5 -10 -11z"/>
<path d="M1176 3033 c-6 -14 -5 -15 5 -6 7 7 10 15 7 18 -3 3 -9 -2 -12 -12z"/>
<path d="M1476 3038 c3 -5 10 -6 15 -3 13 9 11 12 -6 12 -8 0 -12 -4 -9 -9z"/>
<path d="M1810 2931 c-5 -11 -15 -32 -21 -48 -15 -41 7 -16 26 30 16 39 13 51
-5 18z"/>
<path d="M1820 2485 c0 -8 4 -15 10 -15 5 0 7 7 4 15 -4 8 -8 15 -10 15 -2 0
-4 -7 -4 -15z"/>
<path d="M1470 2083 c0 -5 12 -20 28 -34 l27 -24 -25 30 c-14 17 -26 32 -27
34 -2 2 -3 0 -3 -6z"/>
<path d="M750 1331 c0 -13 8 -21 23 -23 21 -3 22 -8 25 -100 2 -90 4 -98 22
-98 19 0 20 7 20 120 l0 120 -45 0 c-38 0 -45 -3 -45 -19z"/>
<path d="M1061 1280 c-29 -40 -51 -80 -51 -95 0 -23 3 -25 50 -25 47 0 50 -2
50 -25 0 -20 5 -25 25 -25 20 0 25 5 25 25 0 18 5 25 20 25 13 0 20 7 20 20 0
13 -7 20 -20 20 -18 0 -20 7 -20 75 0 73 -1 75 -24 75 -19 0 -36 -17 -75 -70z
m49 -40 c0 -36 -2 -40 -25 -40 -14 0 -25 3 -25 6 0 9 41 74 46 74 2 0 4 -18 4
-40z"/>
<path d="M1246 1342 c-2 -4 -8 -36 -12 -70 -7 -67 1 -76 46 -52 37 20 69 -14
50 -51 -12 -22 -43 -25 -59 -5 -12 14 -51 11 -51 -5 0 -21 46 -49 80 -49 48 0
80 33 80 82 0 45 -29 72 -76 71 -27 -1 -34 2 -30 14 3 8 6 19 6 24 0 5 23 9
50 9 43 0 50 3 50 20 0 18 -7 20 -64 20 -36 0 -67 -4 -70 -8z"/>
<path d="M1410 1331 c0 -13 8 -21 23 -23 21 -3 22 -8 25 -100 2 -90 4 -98 22
-98 19 0 20 7 20 120 l0 120 -45 0 c-38 0 -45 -3 -45 -19z"/>
<path d="M2525 1234 c13 -20 14 -28 5 -34 -19 -12 5 -22 35 -14 33 8 32 17 -6
48 -39 33 -56 33 -34 0z"/>
<path d="M910 1136 c0 -13 6 -27 13 -29 9 -4 9 -8 -2 -15 -7 -5 -11 -16 -9
-23 8 -23 48 28 48 61 0 25 -4 30 -25 30 -20 0 -25 -5 -25 -24z"/>
</g>
</svg>
